<svg id="Layer_1" data-name="Layer 1" xmlns="http://www.w3.org/2000/svg" viewBox="0 0 831.42 74"><defs><style>.cls-1{fill:#424242;}</style></defs><polygon class="cls-1" points="33.17 0.29 -0.48 0.29 72.93 73.71 103.51 73.71 33.17 0.29"/><polygon class="cls-1" points="137.16 0.29 103.51 0.29 176.92 73.71 207.5 73.71 137.16 0.29"/><polygon class="cls-1" points="241.15 0.29 207.5 0.29 280.91 73.71 311.48 73.71 241.15 0.29"/><polygon class="cls-1" points="345.13 0.29 311.48 0.29 384.89 73.71 415.47 73.71 345.13 0.29"/><polygon class="cls-1" points="449.12 0.29 415.47 0.29 488.88 73.71 519.46 73.71 449.12 0.29"/><polygon class="cls-1" points="553.11 0.29 519.46 0.29 592.87 73.71 623.44 73.71 553.11 0.29"/><polygon class="cls-1" points="657.09 0.29 623.44 0.29 696.86 73.71 727.43 73.71 657.09 0.29"/><polygon class="cls-1" points="761.08 0.29 727.43 0.29 800.84 73.71 831.42 73.71 761.08 0.29"/></svg>