<svg id="Layer_1" data-name="Layer 1" xmlns="http://www.w3.org/2000/svg" viewBox="0 0 74 1559.8"><defs><style>.cls-1{fill:#424242;}</style></defs><polygon class="cls-1" points="0.01 1526.15 0.01 1559.81 73.42 1486.39 73.42 1455.82 0.01 1526.15"/><polygon class="cls-1" points="0.01 1422.17 0.01 1455.82 73.42 1382.41 73.42 1351.83 0.01 1422.17"/><polygon class="cls-1" points="0.01 1318.18 0.01 1351.83 73.42 1278.42 73.42 1247.84 0.01 1318.18"/><polygon class="cls-1" points="0.01 1214.19 0.01 1247.84 73.42 1174.43 73.42 1143.86 0.01 1214.19"/><polygon class="cls-1" points="0.01 1110.21 0.01 1143.86 73.42 1070.45 73.42 1039.87 0.01 1110.21"/><polygon class="cls-1" points="0.01 1006.22 0.01 1039.87 73.42 966.46 73.42 935.88 0.01 1006.22"/><polygon class="cls-1" points="0.01 902.23 0.01 935.88 73.42 862.47 73.42 831.9 0.01 902.23"/><polygon class="cls-1" points="0.01 798.25 0.01 831.9 73.42 758.49 73.42 727.91 0.01 798.25"/><polygon class="cls-1" points="0.01 694.26 0.01 727.91 73.42 654.5 73.42 623.92 0.01 694.26"/><polygon class="cls-1" points="0.01 590.27 0.01 623.92 73.42 550.51 73.42 519.93 0.01 590.27"/><polygon class="cls-1" points="0.01 486.28 0.01 519.93 73.42 446.52 73.42 415.95 0.01 486.28"/><polygon class="cls-1" points="0.01 382.3 0.01 415.95 73.42 342.54 73.42 311.96 0.01 382.3"/><polygon class="cls-1" points="0.01 278.31 0.01 311.96 73.42 238.55 73.42 207.97 0.01 278.31"/><polygon class="cls-1" points="0.01 174.32 0.01 207.97 73.42 134.56 73.42 103.99 0.01 174.32"/><polygon class="cls-1" points="0.01 70.34 0.01 103.99 73.42 30.58 73.42 0 0.01 70.34"/></svg>